# xmcd
#
# Track frame offsets:
#	150
#	12780
#	25060
#	37065
#	51257
#	63860
#	75777
#	86732
#	99737
#	108665
#	121405
#	138267
#	151227
#	165260
#
# Disc length: 2354 seconds
#
# Revision: 1
# Processed by: cddbd v1.4PL0 Copyright (c) Steve Scherf et al.
# Submitted via: audiograbber 1.80
#
DISCID=a309300e
DTITLE=Bill McElroy and Prarie Boys - Bill McElroy and Prarie Boys~Slimline Daddy
DYEAR=1900
DGENRE=
TTITLE0=Oklahoma Blues
TTITLE1=Crazy Arms
TTITLE2=Rocking Til the Day I Die
TTITLE3=The Cold Light Of Day
TTITLE4=This Time I Play To Win
TTITLE5=She Sure Can Rock Me
TTITLE6=Flying High
TTITLE7=Heading Back Up The Hills
TTITLE8=Slimline Daddy
TTITLE9=You Loved Me And Left Me For Dead
TTITLE10=Batchelor Boogie
TTITLE11=When Your Conscience Calls Time
TTITLE12=Fool's Gold
TTITLE13=Gabriella
EXTD=
EXTT0=
EXTT1=
EXTT2=
EXTT3=
EXTT4=
EXTT5=
EXTT6=
EXTT7=
EXTT8=
EXTT9=
EXTT10=
EXTT11=
EXTT12=
EXTT13=
PLAYORDER=
